<svg xmlns="http://www.w3.org/2000/svg"
     viewBox="0 0 340 108"
     role="img"
     aria-label="KAIHO">
  <!-- K A I H in light slate, O in indigo accent -->
  <path fill="#e2e8f0" d="M12 77L12 7L24 7L24 36.8L51.2 7L66.4 7L39.6 36L68 77L53.2 77L30.8 44L24 51.6L24 77L12 77Z
    M82 77L69.5 77L95.1 7L108.5 7L134.1 77L121.4 77L101.7 21L101.7 21L82 77ZM121.8 60.5L80.9 60.5L84.1 51L118.6 51L121.8 60.5Z
    M161.7 77L149.7 77L149.7 7L161.7 7L161.7 77Z
    M186 77L186 7L198 7L198 36.2L227.6 36.2L227.6 7L239.6 7L239.6 77L227.6 77L227.6 46L198 46L198 77L186 77Z"/>
  <path fill="#818cf8" d="M280.5 78.5Q272.2 78.5 265.8 75.2Q259.4 71.9 255.8 65.8Q252.2 59.7 252.2 51.5L252.2 51.5Q252.2 43.3 255.8 37.2Q259.4 31.1 265.8 27.8Q272.2 24.5 280.5 24.5L280.5 24.5Q288.8 24.5 295.2 27.8Q301.6 31.1 305.2 37.2Q308.8 43.3 308.8 51.5L308.8 51.5Q308.8 59.7 305.2 65.8Q301.6 71.9 295.2 75.2Q288.8 78.5 280.5 78.5ZM280.5 68.1Q285.6 68.1 289.4 65.8Q293.2 63.5 295.3 59.4Q297.4 55.3 297.4 49.9L297.4 49.9Q297.4 44.5 295.3 40.4Q293.2 36.3 289.4 34Q285.6 31.7 280.5 31.7L280.5 31.7Q275.4 31.7 271.6 34Q267.8 36.3 265.7 40.4Q263.6 44.5 263.6 49.9L263.6 49.9Q263.6 55.3 265.7 59.4Q267.8 63.5 271.6 65.8Q275.4 68.1 280.5 68.1Z"/>
</svg>
