<svg xmlns="http://www.w3.org/2000/svg"
     viewBox="0 0 440 108"
     role="img" aria-label="KAISHO">
  <!-- KAISHO wordmark in Inter-style geometry.
       All letters in --text-primary #292524. -->
  <path fill="#292524" d="
    M12 77L12 7L24 7L24 36.8L51.2 7L66.4 7L39.6 36L68 77
    L53.2 77L30.8 44L24 51.6L24 77L12 77Z

    M82 77L69.5 77L95.1 7L108.5 7L134.1 77L121.4 77
    L101.7 21L101.7 21L82 77Z
    M121.8 60.5L80.9 60.5L84.1 51L118.6 51L121.8 60.5Z

    M161.7 77L149.7 77L149.7 7L161.7 7L161.7 77Z

    M186 77L186 7L198 7L198 36.2L224.4 7L239.6 7
    L213.6 35.6L241 77L226 77L204 42L198 48.4L198 77
    L186 77Z

    M258 77L258 7L270 7L270 36.2L299.6 36.2L299.6 7
    L311.6 7L311.6 77L299.6 77L299.6 46L270 46
    L270 77L258 77Z

    M352.5 78.5Q344.2 78.5 337.8 75.2Q331.4 71.9
    327.8 65.8Q324.2 59.7 324.2 51.5L324.2 51.5
    Q324.2 43.3 327.8 37.2Q331.4 31.1 337.8 27.8
    Q344.2 24.5 352.5 24.5L352.5 24.5Q360.8 24.5
    367.2 27.8Q373.6 31.1 377.2 37.2Q380.8 43.3
    380.8 51.5L380.8 51.5Q380.8 59.7 377.2 65.8
    Q373.6 71.9 367.2 75.2Q360.8 78.5 352.5 78.5Z
    M352.5 68.1Q357.6 68.1 361.4 65.8Q365.2 63.5
    367.3 59.4Q369.4 55.3 369.4 49.9L369.4 49.9
    Q369.4 44.5 367.3 40.4Q365.2 36.3 361.4 34
    Q357.6 31.7 352.5 31.7L352.5 31.7Q347.4 31.7
    343.6 34Q339.8 36.3 337.7 40.4Q335.6 44.5
    335.6 49.9L335.6 49.9Q335.6 55.3 337.7 59.4
    Q339.8 63.5 343.6 65.8Q347.4 68.1 352.5 68.1Z
  "/>
</svg>
