<svg xmlns="http://www.w3.org/2000/svg"
     viewBox="0 0 360 84"
     role="img" aria-label="KAISHO">
  <!-- KAISHO wordmark — dark variant (#292524) for light bg.
       Letters: K(0-56) A(70-122) I(138-150) S(164-214)
       H(228-282) O(294-356). Cap height Y=5.8 to Y=78.2. -->
  <path fill="#292524" d="
    M0 77L0 7L12 7L12 36.8L39.2 7L54.4 7L27.6 36L56 77
    L41.2 77L18.8 44L12 51.6L12 77L0 77Z

    M82 77L69.5 77L95.1 7L108.5 7L134.1 77L121.4 77
    L101.7 21L101.7 21L82 77Z
    M109.8 60.5L68.9 60.5L72.1 51L106.6 51L109.8 60.5Z

    M149.7 77L137.7 77L137.7 7L149.7 7L149.7 77Z

    M189.6 78.2L189.6 78.2Q182 78.2 176.1 75.5Q170.2
    72.8 166.9 67.8Q163.6 62.8 163.5 55.9L163.5 55.9
    L176.2 55.9Q176.2 59.4 177.85 62.15Q179.5 64.9
    182.45 66.5Q185.4 68.1 189.6 68.1L189.6 68.1Q193.2
    68.1 195.85 66.95Q198.5 65.8 199.95 63.65Q201.4
    61.5 201.4 58.6L201.4 58.6Q201.4 55.3 199.85
    53.15Q198.3 51 195.6 49.5Q192.9 48 189.4
    46.85Q185.9 45.7 182 44.4L182 44.4Q173.7 41.6
    169.5 37.25Q165.3 32.9 165.3 25.6L165.3 25.6Q165.3
    19.5 168.2 15.1Q171.1 10.7 176.35 8.25Q181.6 5.8
    188.5 5.8L188.5 5.8Q195.5 5.8 200.75 8.3Q206 10.8
    209.05 15.25Q212.1 19.7 212.2 25.9L212.2 25.9L199.4
    25.9Q199.3 23.3 198 21.05Q196.7 18.8 194.25
    17.35Q191.8 15.9 188.3 15.9L188.3 15.9Q185.3 15.8
    182.95 16.85Q180.6 17.9 179.25 19.85Q177.9 21.8
    177.9 24.7L177.9 24.7Q177.9 27.5 179.15 29.35Q180.4
    31.2 182.8 32.45Q185.2 33.7 188.4 34.8Q191.6 35.9
    195.4 37.2L195.4 37.2Q200.6 38.9 204.85 41.35Q209.1
    43.8 211.6 47.7Q214.1 51.6 214.1 57.8L214.1
    57.8Q214.1 63.2 211.3 67.85Q208.5 72.5 203.1
    75.35Q197.7 78.2 189.6 78.2Z

    M228 77L228 7L240 7L240 36.2L269.6 36.2L269.6 7
    L281.6 7L281.6 77L269.6 77L269.6 46L240 46
    L240 77L228 77Z

    M325 78.2Q316 78.2 309 74.8Q302 71.4 298 65.2Q294
    59 294 42L294 42Q294 25 298 18.8Q302 12.6 309
    9.2Q316 5.8 325 5.8L325 5.8Q334 5.8 341 9.2Q348
    12.6 352 18.8Q356 25 356 42L356 42Q356 59 352
    65.2Q348 71.4 341 74.8Q334 78.2 325 78.2ZM325
    68Q332 68 336 65.4Q340 62.8 342.5 58Q345 53.2
    345 42L345 42Q345 30.8 342.5 26Q340 21.2 336
    18.6Q332 16 325 16L325 16Q318 16 314 18.6Q310
    21.2 307.5 26Q305 30.8 305 42L305 42Q305 53.2
    307.5 58Q310 62.8 314 65.4Q318 68 325 68Z
  "/>
</svg>
